HIERARCHY
ROOT Pelvis
{
	OFFSET 0.000000 0.000000 0.000000
	CHANNELS 6 Xposition Yposition Zposition Xrotation Yrotation Zrotation
	JOINT LeftUpLeg_virtual
	{
		OFFSET 0.000000 0.000000 0.000000
		CHANNELS 3 Xrotation Yrotation Zrotation
		JOINT LeftUpLeg
		{
			OFFSET 18.735201 -5.666702 -4.541200
			CHANNELS 3 Xrotation Yrotation Zrotation
			JOINT LeftLeg
			{
				OFFSET -0.021200 -31.938179 0.493100
				CHANNELS 3 Xrotation Yrotation Zrotation
				JOINT LeftFoot
				{
					OFFSET 0.021200 -31.938179 -4.336299
					CHANNELS 3 Xrotation Yrotation Zrotation
					JOINT LeftToeBase
					{
						OFFSET 0.943001 -26.722000 15.023500
						CHANNELS 3 Xrotation Yrotation Zrotation
						End Site
						{
							OFFSET 0 0 0
						}
					}
				}
			}
		}
	}
	JOINT RightUpLeg_virtual
	{
		OFFSET 0.000000 0.000000 0.000000
		CHANNELS 3 Xrotation Yrotation Zrotation
		JOINT RightUpLeg
		{
			OFFSET -18.735201 -5.666702 -4.541200
			CHANNELS 3 Xrotation Yrotation Zrotation
			JOINT RightLeg
			{
				OFFSET 0.018946 -31.938133 0.493100
				CHANNELS 3 Xrotation Yrotation Zrotation
				JOINT RightFoot
				{
					OFFSET -0.018946 -31.938126 -4.336299
					CHANNELS 3 Xrotation Yrotation Zrotation
					JOINT RightToeBase
					{
						OFFSET -0.943001 -26.722004 15.023500
						CHANNELS 3 Xrotation Yrotation Zrotation
						End Site
						{
							OFFSET 0 0 0
						}
					}
				}
			}
		}
	}
	JOINT Hips_virtual
	{
		OFFSET 0.000000 0.000000 0.000000
		CHANNELS 3 Xrotation Yrotation Zrotation
		JOINT Hips
		{
			OFFSET -0.000000 -0.000000 -0.000000
			CHANNELS 3 Xrotation Yrotation Zrotation
			JOINT Spine
			{
				OFFSET 0.000000 10.199997 -0.299500
				CHANNELS 3 Xrotation Yrotation Zrotation
				JOINT Spine1
				{
					OFFSET 0.000000 11.900002 -1.516600
					CHANNELS 3 Xrotation Yrotation Zrotation
					JOINT Spine2
					{
						OFFSET 0.000000 13.600006 -2.842500
						CHANNELS 3 Xrotation Yrotation Zrotation
						JOINT Neck_virtual
						{
							OFFSET 0.000000 0.000000 0.000000
							CHANNELS 3 Xrotation Yrotation Zrotation
							JOINT Neck
							{
								OFFSET 0.000000 9.624100 -2.890100
								CHANNELS 3 Xrotation Yrotation Zrotation
								JOINT Head
								{
									OFFSET 0.000000 14.068802 -1.351900
									CHANNELS 3 Xrotation Yrotation Zrotation
									End Site
									{
										OFFSET 0 0 0
									}
								}
							}
						}
						JOINT LeftShoulder_virtual
						{
							OFFSET 0.000000 0.000000 0.000000
							CHANNELS 3 Xrotation Yrotation Zrotation
							JOINT LeftShoulder
							{
								OFFSET 15.263000 10.923401 -0.547700
								CHANNELS 3 Xrotation Yrotation Zrotation
								JOINT LeftArm
								{
									OFFSET 25.438599 -2.830597 -13.032500
									CHANNELS 3 Xrotation Yrotation Zrotation
									JOINT LeftForeArm
									{
										OFFSET 29.960503 0.000000 0.000000
										CHANNELS 3 Xrotation Yrotation Zrotation
										JOINT LeftHand
										{
											OFFSET 27.849251 0.000000 0.000000
											CHANNELS 3 Xrotation Yrotation Zrotation
											End Site
											{
												OFFSET 0 0 0
											}
										}
									}
								}
							}
						}
						JOINT RightShoulder_virtual
						{
							OFFSET 0.000000 0.000000 0.000000
							CHANNELS 3 Xrotation Yrotation Zrotation
							JOINT RightShoulder
							{
								OFFSET -15.263000 10.923401 -0.547700
								CHANNELS 3 Xrotation Yrotation Zrotation
								JOINT RightArm
								{
									OFFSET -25.438599 -2.830597 -13.032500
									CHANNELS 3 Xrotation Yrotation Zrotation
									JOINT RightForeArm
									{
										OFFSET -29.960503 0.000000 0.000000
										CHANNELS 3 Xrotation Yrotation Zrotation
										JOINT RightHand
										{
											OFFSET -27.849251 0.000000 0.000000
											CHANNELS 3 Xrotation Yrotation Zrotation
											End Site
											{
												OFFSET 0 0 0
											}
										}
									}
								}
							}
						}
					}
				}
			}
		}
	}
}
MOTION
Frames: 13
Frame Time: 0.03333333
7.356336 85.540482 4.721794 0.000000 0.000000 0.000000 7.193358 -12.075812 -1.556826 -39.105097 6.762926 12.533236 54.748843 8.399139 0.596239 -19.397775 7.563459 -8.643331 0.000000 0.000000 0.000000 7.204379 -10.868755 -2.080153 -27.326245 -7.693146 -15.340275 47.717925 -11.109199 -4.357612 -10.778547 0.953528 12.255324 0.000000 0.000000 0.000000 7.113485 -11.363558 -1.545560 -0.219383 -0.485042 -0.969957 12.474329 2.627666 -2.818686 5.730654 5.567196 -0.793115 0.000000 0.000000 0.000000 -2.494360 6.282949 -0.990510 0.104929 -0.625885 0.819106 0.000000 0.000000 0.000000 -0.847775 6.050532 -1.321778 -1.054794 -5.884774 -0.358130 -13.239336 -5.942110 -55.539263 -11.291242 -27.688805 -6.514772 0.000000 0.000000 0.000000 -1.273714 6.500353 -0.386152 5.743464 -16.597018 2.001102 33.380675 48.073327 15.542140 20.950591 31.671772 4.127314 0.000000 0.000000 0.000000 
7.576842 86.034256 4.376095 0.000000 0.000000 0.000000 7.383442 -11.276608 -2.030798 -39.100541 6.987659 12.593065 52.943293 8.467579 1.018328 -18.593523 7.764058 -7.810958 0.000000 0.000000 0.000000 7.402198 -10.121391 -2.615594 -25.876305 -8.119986 -14.920902 43.526747 -8.077160 -3.671702 -12.639108 1.207969 13.842172 0.000000 0.000000 0.000000 7.370254 -10.581991 -2.015488 -0.270845 -0.666308 -1.131482 12.215609 2.366914 -2.541337 5.270118 5.395942 -0.589350 0.000000 0.000000 0.000000 -2.716289 6.010582 -0.767414 0.100423 -0.493166 0.642585 0.000000 0.000000 0.000000 -1.080900 5.789466 -1.056860 -1.010012 -5.486011 -0.185081 -12.381819 -5.217526 -55.643386 -9.903808 -27.239546 -5.534398 0.000000 0.000000 0.000000 -1.634035 6.230441 -0.142092 5.303171 -15.536785 1.406638 26.296609 45.186612 20.292200 19.370990 29.436237 6.744123 0.000000 0.000000 0.000000 
7.731190 86.502304 4.129562 0.000000 0.000000 0.000000 7.628268 -10.928771 -2.293763 -38.854395 6.991785 12.474105 51.147878 8.357153 1.392373 -17.785434 7.830014 -7.241292 0.000000 0.000000 0.000000 7.561217 -9.759686 -2.910517 -23.950982 -8.336892 -14.639903 38.884854 -5.771023 -3.262736 -14.371930 0.886327 15.157137 0.000000 0.000000 0.000000 7.585859 -10.117133 -2.254565 -0.375324 -0.813702 -1.225105 12.010885 2.207226 -2.265772 4.860863 5.257188 -0.444208 0.000000 0.000000 0.000000 -2.839370 5.775098 -0.618594 0.104986 -0.368315 0.446236 0.000000 0.000000 0.000000 -1.293329 5.570764 -0.857651 -0.983254 -4.967336 -0.012247 -11.466683 -4.692577 -55.888078 -8.472563 -26.578003 -4.601509 0.000000 0.000000 0.000000 -1.924409 6.021681 0.011832 4.825820 -14.276498 0.711489 19.408829 41.201692 26.513514 18.473660 28.371107 7.912416 0.000000 0.000000 0.000000 
7.888093 86.863365 3.974800 0.000000 0.000000 0.000000 7.723554 -10.787511 -2.364928 -38.501069 6.861677 12.304348 49.717743 8.001333 1.584442 -17.115061 7.725364 -7.181506 0.000000 0.000000 0.000000 7.544484 -9.693507 -2.952843 -22.057637 -8.281152 -14.425168 34.437069 -4.079594 -3.082796 -15.090939 0.490691 16.636741 0.000000 0.000000 0.000000 7.607721 -9.826060 -2.285463 -0.444719 -0.820397 -1.249202 11.955926 2.144472 -2.041056 4.501510 5.175875 -0.331520 0.000000 0.000000 0.000000 -2.894421 5.614818 -0.511583 0.090928 -0.265336 0.245236 0.000000 0.000000 0.000000 -1.495206 5.426737 -0.705519 -0.984165 -4.458921 0.106918 -10.689650 -4.347745 -56.211607 -7.125991 -26.029264 -3.781132 0.000000 0.000000 0.000000 -2.173076 5.893159 0.104253 4.336337 -12.912580 0.061210 13.532224 36.510503 33.123825 17.978649 27.960332 7.938029 0.000000 0.000000 0.000000 
7.987553 87.131531 3.879768 0.000000 0.000000 0.000000 7.523454 -10.724938 -2.291244 -38.059201 6.659362 12.230940 48.804676 7.409039 1.569615 -16.637581 7.546906 -7.610573 0.000000 0.000000 0.000000 7.176008 -9.688388 -2.832619 -20.557508 -8.137502 -14.273635 30.917647 -3.064231 -3.031180 -15.084725 0.023220 17.801356 0.000000 0.000000 0.000000 7.349063 -9.593898 -2.175195 -0.477796 -0.798253 -1.184080 12.060285 2.176196 -1.890241 4.174439 5.162015 -0.232527 0.000000 0.000000 0.000000 -2.937967 5.547308 -0.410643 0.033040 -0.199561 0.054367 0.000000 0.000000 0.000000 -1.701162 5.362327 -0.577749 -1.010173 -4.057355 0.136357 -10.239433 -4.080495 -56.607771 -5.981566 -25.682508 -3.084861 0.000000 0.000000 0.000000 -2.397022 5.850378 0.171123 3.842525 -11.451750 -0.360606 9.002417 31.739349 39.494538 17.629966 27.665121 7.168092 0.000000 0.000000 0.000000 
7.996578 87.339249 3.920357 0.000000 0.000000 0.000000 6.999604 -10.595641 -2.153730 -37.434491 6.424820 12.247398 48.220111 6.695993 1.447815 -16.395779 7.411414 -8.244081 0.000000 0.000000 0.000000 6.469941 -9.581683 -2.632232 -19.450943 -7.978989 -14.074786 28.717725 -2.761790 -3.120263 -15.072055 -0.670968 18.119915 0.000000 0.000000 0.000000 6.801800 -9.373638 -2.026236 -0.492881 -0.798696 -1.112884 12.266110 2.264627 -1.785264 3.829713 5.200634 -0.125237 0.000000 0.000000 0.000000 -3.061693 5.558763 -0.283621 -0.082440 -0.178028 -0.116569 0.000000 0.000000 0.000000 -1.943697 5.368417 -0.452361 -1.054877 -3.753810 0.023211 -10.205003 -3.757340 -57.086697 -5.093166 -25.381403 -2.503480 0.000000 0.000000 0.000000 -2.630387 5.867689 0.240930 3.363545 -9.970440 -0.445634 5.964338 27.150914 45.241315 17.166188 27.041417 5.959817 0.000000 0.000000 0.000000 
7.941995 87.549652 3.960514 0.000000 0.000000 0.000000 6.240233 -10.427822 -2.019902 -36.502894 6.238691 12.313252 47.568217 6.014890 1.305274 -16.221648 7.403908 -8.816652 0.000000 0.000000 0.000000 5.569926 -9.331409 -2.446755 -18.725918 -8.027906 -13.890475 27.773135 -3.130177 -3.285085 -15.438488 -1.597056 17.498892 0.000000 0.000000 0.000000 6.004395 -9.111174 -1.930340 -0.505572 -0.846204 -1.079275 12.480528 2.370438 -1.671928 3.424933 5.278427 -0.007366 0.000000 0.000000 0.000000 -3.307510 5.627560 -0.137037 -0.242133 -0.199932 -0.262041 0.000000 0.000000 0.000000 -2.242903 5.428040 -0.333045 -1.110201 -3.548054 -0.277994 -10.453690 -3.310236 -57.667519 -4.514266 -25.060405 -2.053340 0.000000 0.000000 0.000000 -2.906329 5.923238 0.319841 2.878748 -8.468860 -0.117775 4.282282 22.878067 50.247472 16.355537 26.026204 4.685986 0.000000 0.000000 0.000000 
7.772200 87.830574 4.021038 0.000000 0.000000 0.000000 5.388081 -10.198452 -1.929920 -35.267313 6.109318 12.400226 46.579718 5.435753 1.205493 -15.777425 7.547304 -9.202508 0.000000 0.000000 0.000000 4.621808 -8.967128 -2.328123 -18.280337 -8.230526 -13.690610 27.687096 -3.824014 -3.481948 -15.553488 -2.384050 16.493735 0.000000 0.000000 0.000000 5.099321 -8.836711 -1.884070 -0.519433 -0.966777 -1.088289 12.605130 2.462063 -1.486590 2.968882 5.370703 0.098819 0.000000 0.000000 0.000000 -3.680644 5.719658 0.010078 -0.422414 -0.256291 -0.386489 0.000000 0.000000 0.000000 -2.605636 5.510629 -0.234326 -1.160347 -3.386780 -0.740608 -10.756805 -2.783211 -58.371521 -4.221678 -24.732451 -1.756643 0.000000 0.000000 0.000000 -3.232704 5.989380 0.386359 2.389365 -7.018931 0.480017 3.795883 18.688137 54.560094 15.134700 24.858415 3.513482 0.000000 0.000000 0.000000 
7.490147 88.188179 4.167606 0.000000 0.000000 0.000000 4.571497 -9.917381 -1.889713 -33.875368 6.029303 12.483134 45.255573 4.987456 1.146806 -14.759352 7.818456 -9.412148 0.000000 0.000000 0.000000 3.826640 -8.560154 -2.253856 -17.848340 -8.362183 -13.366052 27.636322 -4.326834 -3.712861 -14.583313 -2.526804 16.082259 0.000000 0.000000 0.000000 4.240318 -8.603541 -1.851357 -0.574407 -1.067564 -1.171407 12.600728 2.510297 -1.231775 2.479981 5.458714 0.177821 0.000000 0.000000 0.000000 -4.157739 5.805451 0.132525 -0.593150 -0.333446 -0.499678 0.000000 0.000000 0.000000 -3.045634 5.590506 -0.170489 -1.207315 -3.249435 -1.312397 -10.913676 -2.266006 -59.137321 -4.136163 -24.532950 -1.631996 0.000000 0.000000 0.000000 -3.624631 6.045891 0.420285 1.892155 -5.669247 1.162584 4.148796 14.510742 58.223565 13.483885 23.785439 2.552909 0.000000 0.000000 0.000000 
7.129198 88.548294 4.342796 0.000000 0.000000 0.000000 3.883038 -9.693574 -1.862793 -32.515624 5.980070 12.583969 43.768037 4.643578 1.105772 -13.282586 8.151333 -9.603363 0.000000 0.000000 0.000000 3.228567 -8.265698 -2.187230 -17.274243 -8.404676 -12.882610 27.110981 -4.428658 -3.919886 -12.657603 -1.885499 16.259504 0.000000 0.000000 0.000000 3.500150 -8.447072 -1.779888 -0.643222 -1.094170 -1.255069 12.477970 2.522858 -0.942903 1.995681 5.526342 0.219793 0.000000 0.000000 0.000000 -4.675486 5.865018 0.210500 -0.724202 -0.414950 -0.612230 0.000000 0.000000 0.000000 -3.536493 5.643032 -0.140547 -1.253299 -3.142761 -1.908214 -10.827070 -1.780098 -59.906346 -4.186827 -24.659595 -1.672183 0.000000 0.000000 0.000000 -4.070855 6.081873 0.423139 1.394110 -4.450400 1.748123 4.911114 10.445641 61.376128 11.535441 22.956693 1.823725 0.000000 0.000000 0.000000 
6.662083 88.867371 4.522816 0.000000 0.000000 0.000000 3.341469 -9.566736 -1.807521 -31.267247 5.875625 12.694569 42.217382 4.286607 1.125978 -11.776397 8.442532 -9.963530 0.000000 0.000000 0.000000 2.782610 -8.198159 -2.091123 -16.378102 -8.381642 -12.246393 25.945845 -4.275957 -4.017212 -10.843336 -0.871223 16.505868 0.000000 0.000000 0.000000 2.954647 -8.454861 -1.635383 -0.672461 -1.056764 -1.322281 12.273009 2.515031 -0.668802 1.544828 5.549060 0.234068 0.000000 0.000000 0.000000 -5.190567 5.875040 0.248329 -0.803111 -0.485164 -0.729156 0.000000 0.000000 0.000000 -4.048046 5.644362 -0.127204 -1.302436 -3.047721 -2.432849 -10.489583 -1.326087 -60.645502 -4.243166 -25.071275 -1.819592 0.000000 0.000000 0.000000 -4.546497 6.080132 0.409659 0.920832 -3.386945 2.121082 5.763675 6.769859 64.031705 9.428732 22.277506 1.311095 0.000000 0.000000 0.000000 
6.126437 89.136810 4.718929 0.000000 0.000000 0.000000 2.925916 -9.656967 -1.693369 -30.110018 5.761520 12.804239 40.709095 3.915192 1.207190 -10.584624 8.672269 -10.514906 0.000000 0.000000 0.000000 2.443339 -8.350180 -1.945561 -15.371733 -8.381282 -11.659188 24.556869 -4.047406 -3.985426 -9.876792 0.104708 16.411925 0.000000 0.000000 0.000000 2.590499 -8.651147 -1.445143 -0.705796 -0.964293 -1.359532 12.047143 2.500584 -0.452938 1.133932 5.522513 0.243250 0.000000 0.000000 0.000000 -5.687862 5.839481 0.266065 -0.833262 -0.536550 -0.851988 0.000000 0.000000 0.000000 -4.547101 5.594974 -0.107022 -1.364890 -2.949231 -2.844222 -9.905380 -0.855943 -61.349804 -4.248609 -25.575862 -2.020779 0.000000 0.000000 0.000000 -5.029418 6.042026 0.414813 0.493134 -2.460469 2.310836 6.466059 3.798602 66.102339 7.305622 21.601974 1.025254 0.000000 0.000000 0.000000 
5.544885 89.346512 4.866550 0.000000 0.000000 0.000000 2.630733 -9.955989 -1.525737 -28.992749 5.762043 12.919174 39.249245 3.608658 1.320710 -9.890405 8.858559 -11.200192 0.000000 0.000000 0.000000 2.158822 -8.726413 -1.778727 -14.658887 -8.473501 -11.272673 23.661353 -3.901498 -3.804667 -9.803879 0.811365 15.736892 0.000000 0.000000 0.000000 2.354744 -9.016065 -1.241068 -0.718831 -0.872297 -1.310738 11.837699 2.497999 -0.295917 0.756364 5.436582 0.263057 0.000000 0.000000 0.000000 -6.166930 5.758148 0.286478 -0.829212 -0.562315 -0.975458 0.000000 0.000000 0.000000 -4.991859 5.495685 -0.066122 -1.431835 -2.817045 -3.128257 -9.132526 -0.285716 -62.044974 -4.137813 -26.021921 -2.192230 0.000000 0.000000 0.000000 -5.500537 5.963578 0.452313 0.124378 -1.684933 2.360638 6.989902 1.707263 67.482330 5.341529 20.822310 0.935439 0.000000 0.000000 0.000000 
